<svg width="128" height="128" viewBox="0 0 128 128" fill="none" xmlns="http://www.w3.org/2000/svg">
<g clip-path="url(#clip0_457_21)">
<path d="M33.4696 50.5574C33.4633 50.2635 33.5165 49.9713 33.6258 49.6981C33.7352 49.4249 33.8985 49.1762 34.1063 48.9665C34.3357 48.7439 34.6093 48.5711 34.9097 48.4591C35.2101 48.3471 35.5307 48.2982 35.8512 48.3157C36.1723 48.2987 36.4935 48.3478 36.7946 48.4598C37.0957 48.5718 37.3702 48.7443 37.6009 48.9665C37.8052 49.1777 37.965 49.4272 38.071 49.7003C38.1769 49.9735 38.227 50.2648 38.2182 50.5574V71.2867C38.1832 71.8883 38.3716 72.4817 38.748 72.9547C38.9305 73.1571 39.1558 73.3169 39.4079 73.4227C39.66 73.5286 39.9326 73.5778 40.2061 73.5669H49.4408C49.981 73.5515 50.5054 73.7491 50.8989 74.1165C51.0947 74.3111 51.2473 74.5441 51.3469 74.8007C51.4465 75.0572 51.4909 75.3316 51.4773 75.6061C51.498 75.8868 51.4526 76.1684 51.3447 76.4286C51.2367 76.6888 51.0691 76.9205 50.8552 77.1054C50.4763 77.4436 49.9891 77.6383 49.4797 77.655H39.2729C38.4979 77.6902 37.7238 77.5696 36.9971 77.3004C36.2704 77.0311 35.6062 76.6188 35.0444 76.0882C33.9751 75.0437 33.4404 73.5428 33.4404 71.5856L33.4696 50.5574Z" fill="white"/>
<path d="M67.1618 47.906C69.3128 47.8826 71.4455 48.2994 73.4268 49.1304C75.2579 49.8914 76.9184 51.0056 78.3118 52.4083C79.7051 53.8111 80.8037 55.4744 81.5436 57.3017C83.0793 61.0863 83.0793 65.3135 81.5436 69.0981C80.7992 70.9205 79.6989 72.5789 78.3058 73.9779C76.9128 75.3769 75.2547 76.489 73.4268 77.25C69.4056 78.8826 64.8986 78.8826 60.8773 77.25C59.0244 76.4814 57.3417 75.3594 55.9246 73.9478C54.5371 72.558 53.4403 70.9098 52.6973 69.0981C51.1676 65.3123 51.1676 61.0874 52.6973 57.3017C53.4364 55.4822 54.5335 53.827 55.9246 52.4327C57.3417 51.021 59.0244 49.8991 60.8773 49.1304C62.8657 48.3004 65.0046 47.8837 67.1618 47.906V47.906ZM67.1618 74.4202C68.6636 74.4374 70.1527 74.1469 71.5361 73.567C72.8241 73.0218 73.983 72.2155 74.9384 71.1999C75.8974 70.1728 76.6438 68.969 77.1353 67.6567C78.1787 64.7922 78.1787 61.6558 77.1353 58.7913C76.6451 57.4711 75.8988 56.2591 74.9384 55.2239C73.9827 54.2098 72.8238 53.4052 71.5361 52.8617C68.7326 51.7242 65.5909 51.7242 62.7874 52.8617C61.4924 53.4074 60.3244 54.2115 59.356 55.2239C58.3805 56.2558 57.6191 57.4679 57.1154 58.7913C56.0463 61.6513 56.0463 64.7967 57.1154 67.6567C57.6205 68.9722 58.3818 70.1762 59.356 71.1999C60.3242 72.2138 61.4922 73.0195 62.7874 73.567C64.1726 74.1387 65.6617 74.4209 67.1618 74.3961V74.4202Z" fill="white"/>
<path d="M114.866 61.7655C115.435 61.7212 116 61.8936 116.446 62.2476C116.631 62.4225 116.777 62.6348 116.872 62.8701C116.968 63.1055 117.011 63.3584 117 63.6119V64.2241C117.011 66.1051 116.641 67.9691 115.911 69.7054C115.207 71.4025 114.165 72.9418 112.849 74.2321C111.488 75.5688 109.877 76.6284 108.105 77.3511C104.118 78.9023 99.6823 78.873 95.7163 77.2692C93.8655 76.4993 92.1846 75.3774 90.7685 73.9669C89.381 72.5771 88.2842 70.929 87.5412 69.1172C86.0052 65.311 86.0052 61.0644 87.5412 57.2581C88.287 55.4432 89.3908 53.7944 90.7879 52.4084C92.2188 51.0014 93.9149 49.8876 95.7795 49.1303C97.8198 48.3049 100.007 47.895 102.21 47.9251C104.213 47.8835 106.207 48.2172 108.086 48.9085C109.579 49.4633 110.979 50.2403 112.237 51.2129C112.51 51.4057 112.742 51.6509 112.918 51.9341C113.094 52.2173 113.211 52.5327 113.262 52.8616C113.331 53.3892 113.191 53.9227 112.873 54.3512C112.56 54.7549 112.112 55.0351 111.61 55.1418C111.333 55.1993 111.048 55.1945 110.773 55.1277C110.499 55.061 110.243 54.934 110.025 54.7561C108.954 54.0096 107.815 53.364 106.623 52.8278C105.228 52.2381 103.721 51.9537 102.205 51.9938C100.662 51.9745 99.1311 52.2647 97.7042 52.8471C96.388 53.3826 95.1977 54.1824 94.2082 55.1962C93.2187 56.21 92.4513 57.4159 91.9544 58.7381C91.41 60.1622 91.1381 61.6744 91.1524 63.1973C91.1367 64.7156 91.4087 66.2234 91.9544 67.6421C92.4596 68.9564 93.2192 70.1601 94.1902 71.1853C95.1602 72.1971 96.3277 73.0025 97.6216 73.5523C99.0053 74.1313 100.494 74.4217 101.996 74.4056C103.321 74.4196 104.637 74.1992 105.884 73.7548C108.139 72.9513 110.013 71.347 111.143 69.2522C111.724 68.1893 112.126 67.0398 112.334 65.8487H103.347C103.045 65.8693 102.741 65.8214 102.46 65.7086C102.179 65.5959 101.927 65.4213 101.724 65.1979C101.366 64.7998 101.169 64.2849 101.17 63.7517C101.185 63.2491 101.388 62.7699 101.738 62.4067C101.942 62.1882 102.192 62.0173 102.47 61.9064C102.748 61.7955 103.048 61.7474 103.347 61.7655H114.866Z" fill="white"/>
<path d="M11.0243 65.1063C10.8504 60.9741 11.5028 56.8485 12.9442 52.9676C14.3095 49.2526 16.3912 45.837 19.0731 42.9115C21.8174 39.9468 25.1347 37.5597 28.8279 35.8924C32.8346 34.0874 37.1676 33.1036 41.567 33C45.6205 32.8746 49.1378 33.2988 52.1188 34.2726C54.6803 35.0321 57.0918 36.2207 59.249 37.787C59.7835 38.1401 60.2391 38.5982 60.5877 39.1331C60.9364 39.6679 61.1706 40.2681 61.2758 40.8964C61.4532 41.9543 61.2243 43.0397 60.6342 43.9383C60.0164 44.753 59.1397 45.3372 58.1457 45.5966C57.0699 45.918 55.9634 45.6818 54.8261 44.888C51.0347 42.2719 46.4634 41.0029 41.8537 41.2869C38.7814 41.3549 35.7564 42.0524 32.969 43.3357C30.3737 44.5239 28.0545 46.232 26.1574 48.3526C24.2602 50.4732 22.8262 52.9604 21.9456 55.6576C20.9713 58.5903 20.5431 61.6744 20.6819 64.7592C20.762 67.8459 21.4076 70.8925 22.5872 73.75C23.6749 76.3996 25.2919 78.8035 27.3406 80.8172C29.3688 82.7988 31.7949 84.3346 34.4611 85.3247C37.3403 86.3827 40.4052 86.8533 43.4722 86.7082C45.9451 86.6264 48.3901 86.1629 50.7191 85.3343C53.156 84.4531 55.4339 83.1883 57.4653 81.5886C57.8988 81.2078 58.4154 80.9318 58.9744 80.7821C59.5335 80.6324 60.1199 80.6131 60.6877 80.7256C61.2295 80.8337 61.7436 81.0496 62.1989 81.3603C62.6542 81.6711 63.0412 82.0701 63.3366 82.5334C63.9617 83.4164 64.2242 84.5024 64.0705 85.5705C63.8781 86.7059 63.2772 87.7335 62.3791 88.463C61.2554 89.393 60.0427 90.2116 58.7581 90.9071C57.3146 91.6943 55.8095 92.365 54.2574 92.9126C52.5889 93.5167 50.8784 94 49.1394 94.3588C47.3784 94.7199 45.59 94.9343 43.793 95C39.3976 95.2042 35.0057 94.5288 30.879 93.0138C27.0869 91.6102 23.6164 89.4679 20.6722 86.713C17.7645 83.98 15.4233 80.7097 13.7802 77.0859C12.0746 73.3119 11.138 69.2406 11.0243 65.1063V65.1063Z" fill="white"/>
<path d="M74.8264 81.0584C75.7173 81.041 76.6023 81.205 77.4267 81.5405C78.1854 81.8538 78.8739 82.3134 79.4521 82.8927C80.0303 83.4719 80.4867 84.1594 80.795 84.915C81.4301 86.4852 81.4301 88.2379 80.795 89.8081C80.4876 90.5594 80.0352 91.2439 79.4632 91.8232C78.8806 92.4065 78.1888 92.8716 77.4267 93.1923C75.7739 93.8888 73.9113 93.913 72.2407 93.2598C71.4721 92.9405 70.7737 92.4754 70.1847 91.8907C69.6082 91.3132 69.1523 90.6284 68.8433 89.8756C68.2082 88.3054 68.2082 86.5527 68.8433 84.9825C69.1521 84.2268 69.6079 83.5388 70.1847 82.9578C70.7737 82.373 71.4721 81.908 72.2407 81.5887C73.0575 81.24 73.9372 81.0595 74.8264 81.0584V81.0584ZM74.8264 92.0546C75.449 92.0608 76.0662 91.9393 76.6393 91.6978C77.1751 91.4783 77.6586 91.1498 78.0586 90.7337C78.4531 90.3146 78.7618 89.8234 78.9675 89.2875C79.4015 88.0992 79.4015 86.7975 78.9675 85.6092C78.7737 85.0521 78.4697 84.5391 78.0731 84.1003C77.6718 83.6856 77.1887 83.3574 76.6539 83.1361C75.4899 82.6669 74.1872 82.6669 73.0232 83.1361C72.4876 83.3585 72.0031 83.6866 71.5991 84.1003C71.1931 84.5271 70.8774 85.0304 70.6708 85.5803C70.2236 86.7662 70.2236 88.0726 70.6708 89.2585C70.8815 89.7964 71.197 90.2878 71.5991 90.7048C72.0018 91.12 72.4867 91.4482 73.0232 91.6689C73.5912 91.9188 74.205 92.0501 74.8264 92.0546V92.0546Z" fill="white"/>
<path d="M90.8901 86.0286C90.9392 85.163 90.6755 84.3084 90.1465 83.6182C89.8664 83.3383 89.5332 83.1162 89.1662 82.9647C88.7991 82.8131 88.4055 82.7351 88.0079 82.7351C87.6103 82.7351 87.2167 82.8131 86.8496 82.9647C86.4826 83.1162 86.1494 83.3383 85.8693 83.6182C85.3403 84.3084 85.0766 85.163 85.1257 86.0286V92.6957C85.1301 92.8142 85.1089 92.9322 85.0636 93.042C85.0184 93.1517 84.9501 93.2506 84.8632 93.3321C84.6532 93.4893 84.3973 93.5743 84.1342 93.5743C83.8711 93.5743 83.6151 93.4893 83.4051 93.3321C83.3183 93.2506 83.25 93.1517 83.2047 93.042C83.1594 92.9322 83.1383 92.8142 83.1427 92.6957V85.8117C83.135 85.1527 83.2537 84.4983 83.4926 83.8833C83.7091 83.3183 84.0399 82.8031 84.4647 82.3696C84.9035 81.9458 85.4266 81.6174 86.0006 81.4055C87.2849 80.9436 88.692 80.9436 89.9763 81.4055C90.5503 81.6174 91.0734 81.9458 91.5122 82.3696C91.937 82.8031 92.2678 83.3183 92.4843 83.8833C92.7232 84.4983 92.8419 85.1527 92.8342 85.8117V92.6957C92.8386 92.8142 92.8175 92.9322 92.7722 93.042C92.727 93.1517 92.6586 93.2506 92.5718 93.3321C92.3618 93.4893 92.1058 93.5743 91.8427 93.5743C91.5796 93.5743 91.3237 93.4893 91.1137 93.3321C91.0268 93.2506 90.9585 93.1517 90.9133 93.042C90.868 92.9322 90.8468 92.8142 90.8512 92.6957L90.8901 86.0286Z" fill="white"/>
</g>
<defs>
<clipPath id="clip0_457_21">
<rect width="106" height="62" fill="white" transform="translate(11 33)"/>
</clipPath>
</defs>
</svg>
