<svg width="304" height="304" viewBox="0 0 304 304" fill="none" xmlns="http://www.w3.org/2000/svg">
<path d="M249.836 225.349H290.957C298.166 225.349 304 219.515 304 212.306V170.148C304 162.939 298.166 157.105 290.957 157.105H249.836C242.628 157.105 236.793 162.939 236.793 170.148V212.306C236.822 219.515 242.656 225.349 249.836 225.349Z" fill="#B9292E"/>
<path d="M170.821 225.349H211.942C219.15 225.349 224.985 219.515 224.985 212.306V170.148C224.985 162.939 219.15 157.105 211.942 157.105H170.821C163.612 157.105 157.778 162.939 157.778 170.148V212.306C157.806 219.515 163.64 225.349 170.821 225.349Z" fill="#666767"/>
<path d="M91.7498 225.349H132.87C140.079 225.349 145.913 219.515 145.913 212.306V170.148C145.913 162.939 140.079 157.105 132.87 157.105H91.7498C84.5411 157.105 78.7068 162.939 78.7068 170.148V212.306C78.7348 219.515 84.5691 225.349 91.7498 225.349Z" fill="#999999"/>
<path d="M91.7498 304H132.87C140.079 304 145.913 298.166 145.913 290.957V248.799C145.913 241.59 140.079 235.756 132.87 235.756H91.7498C84.5411 235.756 78.7068 241.59 78.7068 248.799V290.957C78.7348 298.166 84.5691 304 91.7498 304Z" fill="#4E4D4D"/>
<path d="M170.821 146.699H211.942C219.15 146.699 224.985 140.864 224.985 133.656V91.4973C224.985 84.2886 219.15 78.4543 211.942 78.4543H170.821C163.612 78.4543 157.778 84.2886 157.778 91.4973V133.656C157.806 140.864 163.64 146.699 170.821 146.699Z" fill="#DC2728"/>
<path d="M91.7498 146.699H132.87C140.079 146.699 145.913 140.864 145.913 133.656V91.4973C145.913 84.2886 140.079 78.4543 132.87 78.4543H91.7498C84.5411 78.4543 78.7068 84.2886 78.7068 91.4973V133.656C78.7348 140.864 84.5691 146.699 91.7498 146.699Z" fill="#E6572A"/>
<path d="M170.821 68.2163H211.942C219.15 68.2163 224.985 62.382 224.985 55.1733V13.043C224.985 5.83429 219.15 0 211.942 0H170.821C163.612 0 157.778 5.83429 157.778 13.043V55.2013C157.806 62.382 163.64 68.2163 170.821 68.2163Z" fill="#B82A2D"/>
<path d="M13.043 146.699H54.1354C61.3442 146.699 67.1785 140.864 67.1785 133.656V91.4973C67.1785 84.2886 61.3442 78.4543 54.1354 78.4543H13.043C5.83429 78.4824 0 84.3167 0 91.4973V133.656C0 140.864 5.83429 146.699 13.043 146.699Z" fill="#7F8080"/>
</svg>
