<svg width="48" height="48" viewBox="0 0 48 48" fill="none" xmlns="http://www.w3.org/2000/svg">
<g clip-path="url(#clip0_526_2)">
<path d="M11.6 30.15L8.45 27C10.7833 24.6667 13.225 22.9167 15.775 21.75C18.325 20.5833 21.0667 20 24 20C26.9333 20 29.675 20.5833 32.225 21.75C34.775 22.9167 37.2167 24.6667 39.55 27L36.4 30.15C34.3667 28.1167 32.3167 26.6667 30.25 25.8C28.1833 24.9333 26.1 24.5 24 24.5C21.9 24.5 19.8167 24.9333 17.75 25.8C15.6833 26.6667 13.6333 28.1167 11.6 30.15ZM3.15 21.7L0 18.55C3.1 15.3833 6.70833 12.8333 10.825 10.9C14.9417 8.96667 19.3333 8 24 8C28.6667 8 33.0583 8.96667 37.175 10.9C41.2917 12.8333 44.9 15.3833 48 18.55L44.85 21.7C41.9167 18.9 38.7083 16.6667 35.225 15C31.7417 13.3333 28 12.5 24 12.5C20 12.5 16.2583 13.3333 12.775 15C9.29167 16.6667 6.08333 18.9 3.15 21.7ZM24 42.55L31.4 35.1C30.4333 34.1333 29.325 33.375 28.075 32.825C26.825 32.275 25.4667 32 24 32C22.5333 32 21.175 32.275 19.925 32.825C18.675 33.375 17.5667 34.1333 16.6 35.1L24 42.55Z" fill="#BCBCBC"/>
</g>
<defs>
<clipPath id="clip0_526_2">
<rect width="48" height="48" fill="white"/>
</clipPath>
</defs>
</svg>
