<svg width="48" height="48" viewBox="0 0 48 48" fill="none" xmlns="http://www.w3.org/2000/svg">
<path d="M14.3441 12.15C13.648 12.15 13.0583 12.3937 12.575 12.8809C12.0917 13.3682 11.85 13.9598 11.85 14.6559C11.85 15.352 12.0936 15.9417 12.5809 16.425C13.0681 16.9084 13.6598 17.15 14.3559 17.15C15.052 17.15 15.6417 16.9064 16.125 16.4191C16.6083 15.9319 16.85 15.3402 16.85 14.6441C16.85 13.9481 16.6064 13.3584 16.1191 12.875C15.6319 12.3917 15.0402 12.15 14.3441 12.15ZM14.3441 32.85C13.648 32.85 13.0583 33.0937 12.575 33.5809C12.0917 34.0682 11.85 34.6598 11.85 35.3559C11.85 36.052 12.0936 36.6417 12.5809 37.125C13.0681 37.6084 13.6598 37.85 14.3559 37.85C15.052 37.85 15.6417 37.6064 16.125 37.1192C16.6083 36.6319 16.85 36.0403 16.85 35.3442C16.85 34.6481 16.6064 34.0584 16.1191 33.575C15.6319 33.0917 15.0402 32.85 14.3441 32.85ZM7.7 6.05005H40.25C40.7833 6.05005 41.2083 6.20838 41.525 6.52505C41.8417 6.84172 42 7.27193 42 7.8157V21.25C42 21.8309 41.8417 22.3178 41.525 22.7107C41.2083 23.1036 40.7833 23.3 40.25 23.3H7.7C7.2 23.3 6.79167 23.1036 6.475 22.7107C6.15833 22.3178 6 21.8309 6 21.25V7.8157C6 7.27193 6.15833 6.84172 6.475 6.52505C6.79167 6.20838 7.2 6.05005 7.7 6.05005ZM9 9.05005V20.3H39V9.05005H9ZM7.7 26.7H40.05C40.55 26.7 41 26.9084 41.4 27.325C41.8 27.7417 42 28.2172 42 28.7514V41.95C42 42.6167 41.8 43.125 41.4 43.475C41 43.825 40.55 44 40.05 44H7.95C7.41667 44 6.95833 43.825 6.575 43.475C6.19167 43.125 6 42.6167 6 41.95V28.7514C6 28.2172 6.15833 27.7417 6.475 27.325C6.79167 26.9084 7.2 26.7 7.7 26.7ZM9 29.7V41H39V29.7H9Z" fill="#858585"/>
</svg>
